<?xml version="1.0" encoding="utf-8"?>
<!-- Generator: Adobe Illustrator 16.0.3, SVG Export Plug-In . SVG Version: 6.00 Build 0)  -->
<svg version="1.2" baseProfile="tiny" xmlns="http://www.w3.org/2000/svg" xmlns:xlink="http://www.w3.org/1999/xlink" x="0px"
	 y="0px" width="50px" height="50px" viewBox="0 0 50 50" xml:space="preserve">
<g id="Ebene_1" display="none">
	<path display="inline" fill="#3C3C3C" d="M0.706,24.02L19.338,4.854c0,0,2.218-2.341,2.218,0.198c0,2.54,0,8.691,0,8.691
		s1.492,0,3.786,0c6.564,0,18.483,0,23.34,0c0,0,1.318-0.345,1.318,1.658c0,2.002,0,18.267,0,19.703c0,1.438-1.1,1.395-1.1,1.395
		c-4.731,0-17.063,0-23.39,0c-2.069,0-3.412,0-3.412,0s0,4.931,0,8.029c0,3.087-2.301,0.758-2.301,0.758S2.375,28.42,0.559,26.608
		C-0.779,25.27,0.706,24.02,0.706,24.02z"/>
</g>
<g id="Ebene_2">
	<g>
		<path fill="#3C3C3C" d="M33.59,14.887c1.341,0,2.427-1.08,2.427-2.422V9.927c0-1.345-1.086-2.427-2.427-2.427
			c-1.344,0-2.427,1.082-2.427,2.427v2.538C31.163,13.808,32.246,14.887,33.59,14.887z"/>
		<path fill="#3C3C3C" d="M42.213,11.699h-4.887v1.235c0,2.037-1.654,3.697-3.695,3.697c-2.044,0-3.695-1.66-3.695-3.697v-1.235
			h-9.862v1.235c0,2.037-1.657,3.697-3.697,3.697c-2.04,0-3.695-1.66-3.695-3.697v-1.235l-4.931-0.061V42.5h2.465h29.571
			l2.462-0.007L42.213,11.699z M39.787,40.042H10.216V20.326h29.571V40.042z"/>
		<path fill="#3C3C3C" d="M16.339,14.887c1.341,0,2.428-1.08,2.428-2.422V9.927c0-1.345-1.087-2.427-2.428-2.427
			c-1.342,0-2.425,1.082-2.425,2.427v2.538C13.915,13.808,14.998,14.887,16.339,14.887z"/>
		<rect x="20.082" y="22.972" fill="#3C3C3C" width="3.884" height="3.428"/>
		<rect x="26.36" y="22.972" fill="#3C3C3C" width="3.888" height="3.428"/>
		<rect x="32.184" y="22.972" fill="#3C3C3C" width="3.885" height="3.428"/>
		<rect x="20.082" y="28.664" fill="#3C3C3C" width="3.884" height="3.425"/>
		<rect x="26.36" y="28.664" fill="#3C3C3C" width="3.888" height="3.425"/>
		<rect x="32.184" y="28.664" fill="#3C3C3C" width="3.885" height="3.425"/>
		<rect x="20.082" y="34.47" fill="#3C3C3C" width="3.884" height="3.425"/>
		<rect x="13.915" y="28.664" fill="#3C3C3C" width="3.88" height="3.425"/>
		<rect x="13.915" y="34.47" fill="#3C3C3C" width="3.88" height="3.425"/>
		<rect x="26.36" y="34.47" fill="#3C3C3C" width="3.888" height="3.425"/>
		<rect x="32.184" y="34.47" fill="#3C3C3C" width="3.885" height="3.425"/>
	</g>
</g>
</svg>
