<?xml version="1.0" encoding="utf-8"?>
<!-- Generator: Adobe Illustrator 16.0.3, SVG Export Plug-In . SVG Version: 6.00 Build 0)  -->
<svg version="1.2" baseProfile="tiny" xmlns="http://www.w3.org/2000/svg" xmlns:xlink="http://www.w3.org/1999/xlink" x="0px"
	 y="0px" width="50px" height="50px" viewBox="0 0 50 50" xml:space="preserve">
<g id="Ebene_1" display="none">
	<path display="inline" fill="#3C3C3C" d="M0.706,24.02L19.338,4.854c0,0,2.218-2.341,2.218,0.198c0,2.54,0,8.691,0,8.691
		s1.492,0,3.786,0c6.564,0,18.483,0,23.34,0c0,0,1.318-0.345,1.318,1.658c0,2.002,0,18.267,0,19.703c0,1.438-1.1,1.395-1.1,1.395
		c-4.731,0-17.063,0-23.39,0c-2.069,0-3.412,0-3.412,0s0,4.931,0,8.029c0,3.087-2.301,0.758-2.301,0.758S2.375,28.42,0.559,26.608
		C-0.779,25.27,0.706,24.02,0.706,24.02z"/>
</g>
<g id="Ebene_2">
	<g>
		<path fill="#3C3C3C" d="M25.002,7.5C15.336,7.5,7.5,15.338,7.5,25.003c0,9.661,7.835,17.497,17.501,17.497
			c9.664,0,17.498-7.836,17.498-17.497C42.5,15.338,34.666,7.5,25.002,7.5z M25.002,37.186c-6.72,0-12.188-5.465-12.188-12.183
			c0-6.724,5.469-12.193,12.188-12.193c6.721,0,12.184,5.469,12.184,12.193C37.186,31.721,31.723,37.186,25.002,37.186z"/>
		<path fill="#3C3C3C" d="M26.507,24.037l0.001-6.756c0-0.831-0.674-1.502-1.506-1.502c-0.835,0-1.51,0.671-1.51,1.502v6.756v3.012
			v0.003h3.015v-0.003l6.757,0.003c0.828,0,1.505-0.674,1.505-1.506c0-0.834-0.677-1.508-1.505-1.508H26.507z"/>
	</g>
</g>
</svg>
