<?xml version="1.0" encoding="utf-8"?>
<!-- Generator: Adobe Illustrator 16.0.3, SVG Export Plug-In . SVG Version: 6.00 Build 0)  -->
<svg version="1.2" baseProfile="tiny" xmlns="http://www.w3.org/2000/svg" xmlns:xlink="http://www.w3.org/1999/xlink" x="0px"
	 y="0px" width="50px" height="50px" viewBox="0 0 50 50" xml:space="preserve">
<g id="Ebene_1" display="none">
	<path display="inline" fill="#3C3C3C" d="M0.706,24.02L19.338,4.854c0,0,2.218-2.341,2.218,0.198c0,2.54,0,8.691,0,8.691
		s1.492,0,3.786,0c6.564,0,18.483,0,23.34,0c0,0,1.318-0.345,1.318,1.658c0,2.002,0,18.267,0,19.703c0,1.438-1.1,1.395-1.1,1.395
		c-4.731,0-17.063,0-23.39,0c-2.069,0-3.412,0-3.412,0s0,4.931,0,8.029c0,3.087-2.301,0.758-2.301,0.758S2.375,28.42,0.559,26.608
		C-0.779,25.27,0.706,24.02,0.706,24.02z"/>
</g>
<g id="Ebene_2">
	<g>
		<path fill="#3C3C3C" d="M37.85,29.537c-0.808-1.789-5.72-3.338-5.72-3.338c-2.619-0.924-2.639-1.846-2.639-1.846
			c-5.154,10.157-9.066,0.027-9.066,0.027c-0.357,1.371-5.66,2.982-5.66,2.982c-1.548,0.595-2.205,1.488-2.205,1.488
			C10.268,32.247,10,39.813,10,39.813c0.032,1.727,0.773,1.906,0.773,1.906c5.272,2.354,13.538,2.77,13.538,2.77
			c8.49,0.18,14.67-2.412,14.67-2.412c0.896-0.564,0.924-1.013,0.924-1.013C40.531,35.643,37.85,29.537,37.85,29.537z"/>
		<path fill="#3C3C3C" d="M19.126,18.987c0.395,3.266,3.205,6.65,5.754,6.65c2.93,0,5.715-3.558,6.15-6.65
			c0.165-0.118,0.435-0.402,0.535-1.047c0,0,0.626-2.239-0.202-1.999c0.289-0.864,1.246-4.227-0.61-6.316
			c0,0-0.868-1.187-2.981-1.816c-0.075-0.061-0.148-0.122-0.236-0.183c0,0,0.047,0.054,0.115,0.146
			c-0.119-0.034-0.247-0.063-0.375-0.093c-0.111-0.12-0.243-0.243-0.388-0.376c0,0,0.128,0.133,0.281,0.351
			c-0.059-0.013-0.11-0.028-0.167-0.037c-0.097-0.147-0.214-0.297-0.36-0.45c0,0,0.062,0.118,0.142,0.303
			c-0.388-0.285-1.17-0.947-1.17-1.687c0,0-0.489,0.228-0.776,0.646c0.114-0.344,0.302-0.662,0.609-0.925
			c0,0-0.322,0.165-0.618,0.522c-0.23,0.13-0.757,0.491-0.935,1.131L23.725,7.07c0.083-0.181,0.198-0.373,0.356-0.565
			c0,0-0.229,0.204-0.429,0.529l-0.34-0.17c0.101-0.189,0.233-0.383,0.413-0.574c0,0-0.18,0.141-0.374,0.377
			c0.055-0.221,0.044-0.474-0.64,0.276c0,0-3.087,1.339-3.98,4.11c0,0-0.524,1.253,0.171,4.933
			c-0.989-0.466-0.314,1.953-0.314,1.953C18.688,18.586,18.961,18.869,19.126,18.987z M19.068,17.678L19.068,17.678L19.068,17.678z
			 M24.734,6.148c-0.15,0.208-0.281,0.469-0.343,0.787l-0.108-0.04C24.368,6.627,24.51,6.369,24.734,6.148z"/>
	</g>
</g>
</svg>
