<?xml version="1.0" encoding="utf-8"?>
<!-- Generator: Adobe Illustrator 16.0.3, SVG Export Plug-In . SVG Version: 6.00 Build 0)  -->
<svg version="1.2" baseProfile="tiny" xmlns="http://www.w3.org/2000/svg" xmlns:xlink="http://www.w3.org/1999/xlink" x="0px"
	 y="0px" width="50px" height="50px" viewBox="0 0 50 50" xml:space="preserve">
<g id="Ebene_1" display="none">
	<path display="inline" fill="#3C3C3C" d="M0.706,24.02L19.338,4.854c0,0,2.218-2.341,2.218,0.198c0,2.54,0,8.691,0,8.691
		s1.492,0,3.786,0c6.564,0,18.483,0,23.34,0c0,0,1.318-0.345,1.318,1.658c0,2.002,0,18.267,0,19.703c0,1.438-1.1,1.395-1.1,1.395
		c-4.731,0-17.063,0-23.39,0c-2.069,0-3.412,0-3.412,0s0,4.931,0,8.029c0,3.087-2.301,0.758-2.301,0.758S2.375,28.42,0.559,26.608
		C-0.779,25.27,0.706,24.02,0.706,24.02z"/>
</g>
<g id="Ebene_2">
	<g>
		<path fill="#3C3C3C" d="M32.785,42.5v-5.096c0-1.056,0.855-1.916,1.916-1.916l3.95-0.112L32.785,42.5z"/>
		<path fill="#3C3C3C" d="M36.735,7.5H13.267c-1.062,0-1.918,0.86-1.918,1.916v31.17c0,1.059,0.856,1.914,1.918,1.914h17.612v-6.795
			c0-1.057,0.86-1.914,1.919-1.914h5.854V9.416C38.651,8.36,37.796,7.5,36.735,7.5z M35.447,12.878c0,0.3-0.33,0.547-0.74,0.547
			H14.912c-0.41,0-0.742-0.247-0.742-0.547v-0.909c0-0.304,0.332-0.547,0.742-0.547h19.795c0.41,0,0.74,0.243,0.74,0.547V12.878z
			 M35.447,16.805c0,0.304-0.33,0.549-0.74,0.549H14.912c-0.41,0-0.742-0.245-0.742-0.549v-0.911c0-0.297,0.332-0.544,0.742-0.544
			h19.795c0.41,0,0.74,0.247,0.74,0.544V16.805z M24.803,20.813c0,0.3-0.331,0.547-0.741,0.547h-9.151
			c-0.41,0-0.742-0.247-0.742-0.547V19.9c0-0.3,0.332-0.545,0.742-0.545h9.151c0.41,0,0.741,0.245,0.741,0.545V20.813z"/>
	</g>
</g>
</svg>
